<svg width="57" height="56" viewBox="0 0 57 56" fill="none" xmlns="http://www.w3.org/2000/svg">
<path d="M40.3333 32.2105C40.3333 31.4039 40.3333 31.0007 40.4546 30.6413C40.8074 29.5969 41.7375 29.1919 42.6692 28.7674C43.7166 28.2903 44.2402 28.0518 44.7591 28.0098C45.3483 27.9622 45.9384 28.0891 46.4419 28.3717C47.1095 28.7462 47.575 29.4581 48.0517 30.037C50.2527 32.7105 51.3534 34.0475 51.7561 35.5217C52.0811 36.7113 52.0811 37.9554 51.7561 39.1449C51.1688 41.2951 49.3131 43.0976 47.9395 44.7659C47.2369 45.6192 46.8855 46.046 46.4419 46.295C45.9384 46.5775 45.3483 46.7045 44.7591 46.6569C44.2402 46.6149 43.7166 46.3764 42.6692 45.8992C41.7375 45.4748 40.8074 45.0697 40.4546 44.0253C40.3333 43.666 40.3333 43.2628 40.3333 42.4562V32.2105Z" stroke="#FE7D11" stroke-width="2"/>
<path d="M22.8333 49C26.0549 52.111 31.2783 52.111 34.4999 49" stroke="#FE7D11" stroke-width="2" stroke-linecap="round" stroke-linejoin="round"/>
<path d="M16.9999 32.2104C16.9999 31.195 16.9714 30.2824 16.1504 29.5684C15.8518 29.3087 15.4558 29.1283 14.664 28.7676C13.6166 28.2907 13.0929 28.0522 12.574 28.0102C11.017 27.8842 10.1794 28.9468 9.28156 30.0372C7.08034 32.7107 5.97973 34.0475 5.57699 35.5217C5.25201 36.7112 5.25201 37.9553 5.57699 39.1449C6.16439 41.295 8.02013 43.0971 9.39374 44.7654C10.2596 45.817 11.0867 46.7767 12.574 46.6563C13.0929 46.6143 13.6166 46.3759 14.664 45.8987C15.4558 45.5382 15.8518 45.3578 16.1504 45.0981C16.9714 44.3841 16.9999 43.4716 16.9999 42.4559V32.2104Z" stroke="#FE7D11" stroke-width="2"/>
<path d="M5.33325 37.3332V27.9998C5.33325 15.1132 15.7799 4.6665 28.6666 4.6665C41.5531 4.6665 51.9999 15.1132 51.9999 27.9998L52.0001 37.3332" stroke="#FE7D11" stroke-width="2" stroke-linecap="round" stroke-linejoin="round"/>
</svg>
