<svg width="56" height="56" viewBox="0 0 56 56" fill="none" xmlns="http://www.w3.org/2000/svg">
<path d="M23.3333 21V25.6667" stroke="#008BDF" stroke-width="2" stroke-linecap="round"/>
<path d="M39.6667 46.6668C42.244 46.6668 44.3333 44.5775 44.3333 42.0002C44.3333 39.4228 42.244 37.3335 39.6667 37.3335C37.0893 37.3335 35 39.4228 35 42.0002C35 44.5775 37.0893 46.6668 39.6667 46.6668Z" stroke="#008BDF" stroke-width="2"/>
<path d="M16.3334 46.6668C18.9107 46.6668 21.0001 44.5775 21.0001 42.0002C21.0001 39.4228 18.9107 37.3335 16.3334 37.3335C13.7561 37.3335 11.6667 39.4228 11.6667 42.0002C11.6667 44.5775 13.7561 46.6668 16.3334 46.6668Z" stroke="#008BDF" stroke-width="2"/>
<path d="M11.6667 41.9358C9.10774 41.8084 7.51131 41.4276 6.37528 40.2917C4.66675 38.583 4.66675 35.8332 4.66675 30.3335V21.0002C4.66675 15.5005 4.66675 12.7506 6.37528 11.042C8.08384 9.3335 10.8337 9.3335 16.3334 9.3335H24.0334C26.6393 9.3335 27.9422 9.3335 28.9967 9.6761C31.1277 10.3685 32.7983 12.0393 33.4909 14.1704C33.8334 15.2248 33.8334 16.5277 33.8334 19.1335C33.8334 20.8707 33.8334 21.7393 34.0619 22.4422C34.5234 23.8629 35.6373 24.9769 37.0581 25.4384C37.7609 25.6668 38.6296 25.6668 40.3667 25.6668H51.3334V30.3335C51.3334 35.8332 51.3334 38.583 49.6249 40.2917C48.4888 41.4276 46.8924 41.8084 44.3334 41.9358M21.0001 42.0002H35.0001" stroke="#008BDF" stroke-width="2" stroke-linecap="round" stroke-linejoin="round"/>
<path d="M33.8333 14H38.0827C41.4787 14 43.1764 14 44.5582 14.8253C45.94 15.6506 46.745 17.1456 48.355 20.1355L51.3333 25.6667" stroke="#008BDF" stroke-width="2" stroke-linecap="round" stroke-linejoin="round"/>
<path d="M14 21V25.6667" stroke="#008BDF" stroke-width="2" stroke-linecap="round"/>
</svg>
