<svg width="20" height="20" viewBox="0 0 20 20" fill="none" xmlns="http://www.w3.org/2000/svg">
<path d="M18.3333 12.8519V15.4167C18.3333 15.805 18.3333 15.9991 18.2699 16.1523C18.1853 16.3565 18.023 16.5187 17.8189 16.6033C17.6657 16.6667 17.4715 16.6667 17.0833 16.6667C16.695 16.6667 16.5009 16.6667 16.3477 16.6033C16.1435 16.5187 15.9813 16.3565 15.8967 16.1523C15.8333 15.9991 15.8333 15.805 15.8333 15.4167C15.8333 15.0285 15.8333 14.8343 15.7699 14.6811C15.6853 14.477 15.523 14.3147 15.3189 14.2301C15.1657 14.1667 14.9715 14.1667 14.5833 14.1667H5.41663C5.02834 14.1667 4.8342 14.1667 4.68106 14.2301C4.47687 14.3147 4.31463 14.477 4.23006 14.6811C4.16663 14.8343 4.16663 15.0285 4.16663 15.4167C4.16663 15.805 4.16663 15.9991 4.10319 16.1523C4.01862 16.3565 3.85638 16.5187 3.65219 16.6033C3.49905 16.6667 3.30491 16.6667 2.91663 16.6667C2.52834 16.6667 2.3342 16.6667 2.18106 16.6033C1.97687 16.5187 1.81463 16.3565 1.73006 16.1523C1.66663 15.9991 1.66663 15.805 1.66663 15.4167V12.8519C1.66663 11.85 1.66663 11.349 1.80965 10.8767C1.95268 10.4043 2.23055 9.98746 2.78629 9.15387L3.33329 8.33337L4.13458 6.4103C4.75601 4.91885 5.06673 4.17312 5.69654 3.75325C6.32635 3.33337 7.13423 3.33337 8.74996 3.33337H11.25C12.8657 3.33337 13.6735 3.33337 14.3034 3.75325C14.9332 4.17312 15.2439 4.91885 15.8654 6.4103L16.6666 8.33337L17.2136 9.15387C17.7694 9.98746 18.0472 10.4043 18.1903 10.8767C18.3333 11.349 18.3333 11.85 18.3333 12.8519Z" stroke="black" stroke-width="1.5" stroke-linecap="round" stroke-linejoin="round"/>
<path d="M1.66663 7.08337L3.33329 8.33337L4.80091 8.70029C4.93311 8.73329 5.06887 8.75004 5.20513 8.75004H14.7948C14.931 8.75004 15.0668 8.73329 15.199 8.70029L16.6666 8.33337L18.3333 7.08337" stroke="black" stroke-width="1.5" stroke-linecap="round" stroke-linejoin="round"/>
<path d="M15 11.6666V11.675" stroke="black" stroke-width="1.5" stroke-linecap="round" stroke-linejoin="round"/>
<path d="M5 11.6666V11.675" stroke="black" stroke-width="1.5" stroke-linecap="round" stroke-linejoin="round"/>
</svg>
