<?xml version="1.0" encoding="utf-8"?>
<!-- Generator: Adobe Illustrator 27.9.0, SVG Export Plug-In . SVG Version: 6.00 Build 0)  -->
<svg version="1.1" id="Layer_1" xmlns="http://www.w3.org/2000/svg" xmlns:xlink="http://www.w3.org/1999/xlink" x="0px" y="0px"
	 viewBox="0 0 98 71.9" style="enable-background:new 0 0 98 71.9;" xml:space="preserve">
<style type="text/css">
	.st0{fill:#005E95;}
</style>
<path class="st0" d="M83.9,34.4c-0.1-1.4-0.8-2.6-1.8-3.5l-2.9-2.4l0,0L48.1,2.4c-0.9-0.7-2.2-0.6-3,0.3c-0.7,0.9-0.6,2.2,0.3,3
	l15.8,13.2l-9.6,11.4l-4.9-4.1c-0.9-0.7-2.2-0.6-3,0.3c-0.7,0.9-0.6,2.2,0.3,3l4.9,4.1l-3.3,3.9l0,0l0,0l-10.9,13L19.6,37.7
	c-0.3-0.2-0.3-0.5-0.3-0.7s0-0.5,0.2-0.7l12.9-15.4c0.3-0.4,1-0.5,1.4-0.1l3.8,3.2c0.9,0.7,2.2,0.6,3-0.3c0.7-0.9,0.6-2.2-0.3-3
	l-3.8-3.2c-2.2-1.8-5.5-1.5-7.3,0.7L16.3,33.7c-0.9,1.1-1.3,2.4-1.2,3.8c0.1,1.4,0.8,2.6,1.8,3.5l3.2,2.7c0,0,0,0,0,0l13.4,11.2l0,0
	l5.3,4.5l0,0l12.1,10.1c0.4,0.3,0.9,0.5,1.3,0.5c0.6,0,1.2-0.3,1.6-0.7c0.7-0.9,0.6-2.2-0.3-3L37.9,53.1l9.6-11.4l5.2,4.4l9.9,8.3
	c0.9,0.8,2.1,1.2,3.3,1.2c0.1,0,0.3,0,0.5,0c1.4-0.1,2.6-0.8,3.5-1.8l4.3-5.1c0,0,0,0,0,0l8.6-10.3C83.6,37.1,84,35.8,83.9,34.4z
	 M79.5,35.5l-8.6,10.3c0,0,0,0,0,0l-4.3,5.1c-0.2,0.3-0.5,0.3-0.7,0.3c-0.1,0-0.5,0-0.7-0.2l-9.9-8.3l-5.2-4.4l14.2-16.9l15.1,12.6
	c0.3,0.2,0.3,0.5,0.3,0.7C79.8,35,79.7,35.2,79.5,35.5z"/>
</svg>
