<?xml version="1.0" encoding="utf-8"?>
<!-- Generator: Adobe Illustrator 27.9.0, SVG Export Plug-In . SVG Version: 6.00 Build 0)  -->
<svg version="1.1" id="Layer_1" xmlns="http://www.w3.org/2000/svg" xmlns:xlink="http://www.w3.org/1999/xlink" x="0px" y="0px"
	 viewBox="0 0 68.8 68.1" style="enable-background:new 0 0 68.8 68.1;" xml:space="preserve">
<style type="text/css">
	.st0{fill:#005E95;}
</style>
<path class="st0" d="M68.8,32.5C68.7,31.1,68,29.9,67,29l-2.9-2.4l0,0L33,0.5c-0.9-0.7-2.2-0.6-3,0.3c-0.7,0.9-0.6,2.2,0.3,3
	L46,16.9l-9.6,11.4l-4.9-4.1c-0.9-0.7-2.2-0.6-3,0.3c-0.7,0.9-0.6,2.2,0.3,3l4.9,4.1l-3.3,3.9l0,0l0,0l-10.9,13L4.5,35.8
	c-0.3-0.2-0.3-0.5-0.3-0.7s0-0.5,0.2-0.7L17.3,19c0.3-0.4,1-0.5,1.4-0.1l3.8,3.2c0.9,0.7,2.2,0.6,3-0.3c0.7-0.9,0.6-2.2-0.3-3
	l-3.8-3.2c-2.2-1.8-5.5-1.5-7.3,0.7L1.2,31.8c-0.9,1.1-1.3,2.4-1.2,3.8c0.1,1.4,0.8,2.6,1.8,3.5l3.2,2.7c0,0,0,0,0,0L18.5,53l0,0
	l5.3,4.5l0,0l12.1,10.1c0.4,0.3,0.9,0.5,1.3,0.5c0.6,0,1.2-0.3,1.6-0.7c0.7-0.9,0.6-2.2-0.3-3L22.7,51.2l9.6-11.4l5.2,4.4l9.9,8.3
	c0.9,0.8,2.1,1.2,3.3,1.2c0.1,0,0.3,0,0.5,0c1.4-0.1,2.6-0.8,3.5-1.8l4.3-5.1c0,0,0,0,0,0l8.6-10.3C68.5,35.2,68.9,33.9,68.8,32.5z
	 M64.4,33.6l-8.6,10.3c0,0,0,0,0,0L51.5,49c-0.2,0.3-0.5,0.3-0.7,0.3c-0.1,0-0.5,0-0.7-0.2l-9.9-8.3L35,36.5l14.2-16.9l15.1,12.6
	c0.3,0.2,0.3,0.5,0.3,0.7C64.7,33,64.6,33.3,64.4,33.6z"/>
</svg>
