<?xml version="1.0" encoding="utf-8"?>
<!-- Generator: Adobe Illustrator 27.9.0, SVG Export Plug-In . SVG Version: 6.00 Build 0)  -->
<svg version="1.1" id="Layer_1" xmlns="http://www.w3.org/2000/svg" xmlns:xlink="http://www.w3.org/1999/xlink" x="0px" y="0px"
	 viewBox="0 0 81.5 68.1" style="enable-background:new 0 0 81.5 68.1;" xml:space="preserve">
<style type="text/css">
	.st0{fill:#005E95;}
</style>
<path class="st0" d="M65,33c-0.1-1-0.5-1.8-1.3-2.5l-2-1.7l0,0l-22-18.4c-0.6-0.5-1.5-0.4-2.1,0.2c-0.5,0.6-0.4,1.5,0.2,2.1L48.9,22
	l-6.7,8l-3.4-2.9c-0.6-0.5-1.5-0.4-2.1,0.2c-0.5,0.6-0.4,1.5,0.2,2.1l3.4,2.9L37.9,35l0,0l0,0l-7.7,9.1l-10.6-8.9
	c-0.2-0.2-0.2-0.4-0.2-0.5s0-0.3,0.2-0.5l9.1-10.9c0.2-0.3,0.7-0.3,1-0.1l2.7,2.2c0.6,0.5,1.5,0.4,2.1-0.2c0.5-0.6,0.4-1.5-0.2-2.1
	l-2.7-2.2c-1.5-1.3-3.8-1.1-5.1,0.5l-9.1,10.9c-0.6,0.7-0.9,1.7-0.8,2.7c0.1,1,0.5,1.8,1.3,2.5l2.3,1.9c0,0,0,0,0,0l9.4,7.9l0,0
	l3.7,3.1l0,0l8.5,7.1c0.3,0.2,0.6,0.3,0.9,0.3c0.4,0,0.8-0.2,1.1-0.5c0.5-0.6,0.4-1.5-0.2-2.1l-11.1-9.3l6.7-8l3.7,3.1l6.9,5.8
	c0.7,0.6,1.5,0.9,2.3,0.9c0.1,0,0.2,0,0.3,0c1-0.1,1.8-0.5,2.5-1.3l3-3.6c0,0,0,0,0,0l6.1-7.2C64.7,34.9,65,33.9,65,33z M61.9,33.7
	L55.8,41c0,0,0,0,0,0l-3,3.6c-0.2,0.2-0.4,0.2-0.5,0.2c-0.1,0-0.3,0-0.5-0.2l-6.9-5.8l-3.7-3.1l10-11.9l10.6,8.9
	c0.2,0.2,0.2,0.4,0.2,0.5C62,33.3,62,33.5,61.9,33.7z"/>
</svg>
