<?xml version="1.0" encoding="UTF-8"?>
<svg id="Layer_1" data-name="Layer 1" xmlns="http://www.w3.org/2000/svg" viewBox="0 0 126 65">
  <defs>
    <style>
      .cls-1 {
        fill: #fff;
      }

      .cls-1, .cls-2 {
        stroke-width: 0px;
      }

      .cls-2 {
        fill: #005e95;
      }
    </style>
  </defs>
  <rect class="cls-2" width="126" height="65"/>
  <path class="cls-1" d="m80.65,17.38c-.06-.71-.39-1.34-.94-1.8l-1.47-1.23s0,0,0,0L62.26.93c-.45-.38-1.13-.32-1.51.13s-.32,1.13.13,1.51l8.09,6.79-4.9,5.84-2.51-2.11c-.45-.38-1.13-.32-1.51.13-.38.45-.32,1.13.13,1.51l2.51,2.11-1.7,2.02s0,0,0,0,0,0,0,0l-5.59,6.66-7.73-6.49c-.14-.12-.17-.26-.18-.34,0-.08,0-.23.12-.37l6.64-7.91c.18-.21.5-.24.71-.06l1.94,1.63c.45.38,1.13.32,1.51-.13.38-.45.32-1.13-.13-1.51l-1.94-1.63c-1.12-.94-2.8-.79-3.73.33l-6.64,7.91c-.46.54-.67,1.23-.61,1.94.06.71.4,1.34.94,1.8l1.66,1.39s0,0,0,0l6.88,5.78s0,0,0,0l2.72,2.28s0,0,0,0l6.19,5.19c.2.17.45.25.69.25.31,0,.61-.13.82-.38.38-.45.32-1.13-.13-1.51l-8.09-6.79,4.9-5.84,2.67,2.24,5.06,4.24c.48.4,1.08.62,1.7.62.08,0,.16,0,.24-.01.71-.06,1.34-.4,1.8-.94l2.21-2.62s0,0,0-.01l4.43-5.28c.46-.54.67-1.23.61-1.93Zm-2.25.56l-4.43,5.28s0,0,0,.01l-2.2,2.62c-.12.14-.27.17-.34.18-.08,0-.23,0-.37-.12l-5.06-4.24-2.67-2.24,7.29-8.69,7.73,6.49c.14.12.17.27.18.34,0,.08,0,.23-.12.37Z"/>
  <g>
    <path class="cls-1" d="m15.34,49.63h-7.87c-1.32,0-2.39,1.07-2.39,2.39v10.9c0,.5.4.9.9.9s.9-.4.9-.9v-3.54h5.39c.5,0,.9-.4.9-.9s-.4-.9-.9-.9h-5.39v-5.56c0-.33.27-.59.59-.59h6.96v1.12c0,.55.49.99,1.06.89.44-.07.75-.49.75-.94v-1.96c0-.5-.4-.9-.9-.9Z"/>
    <path class="cls-1" d="m120.02,49.63h-7.87c-1.32,0-2.39,1.07-2.39,2.39v1.75c0,.5.4.9.9.9s.9-.4.9-.9v-1.75c0-.33.27-.59.59-.59h2.29v11.49c0,.5.4.9.9.9s.9-.4.9-.9v-11.49h3.78c.5,0,.9-.4.9-.9s-.4-.9-.9-.9Z"/>
    <path class="cls-1" d="m75.16,49.63h-7.87c-1.32,0-2.39,1.07-2.39,2.39v10.9c0,.5.4.9.9.9s.9-.4.9-.9v-10.9c0-.33.27-.59.59-.59h6.97v5.56c0,.33-.27.59-.59.59h-4.8c-.5,0-.9.4-.9.9s.4.9.9.9h4.8c1.32,0,2.39-1.07,2.39-2.39v-6.46c0-.5-.4-.9-.9-.9Z"/>
    <path class="cls-1" d="m30.29,49.63h-7.87c-1.32,0-2.39,1.07-2.39,2.39v10.9c0,.5.4.9.9.9s.9-.4.9-.9v-10.9c0-.33.27-.59.59-.59h6.97v6.16h-5.39c-.5,0-.9.4-.9.9s.4.9.9.9h5.39v3.54c0,.5.4.9.9.9s.9-.4.9-.9v-12.39c0-.5-.4-.9-.9-.9Z"/>
    <path class="cls-1" d="m60.2,49.63h-7.87c-1.32,0-2.39,1.07-2.39,2.39v10.9c0,.5.4.9.9.9s.9-.4.9-.9v-10.9c0-.33.27-.59.59-.59h6.97v6.16h-5.39c-.5,0-.9.4-.9.9s.4.9.9.9h5.39v3.54c0,.5.4.9.9.9s.9-.4.9-.9v-12.39c0-.5-.4-.9-.9-.9Z"/>
    <path class="cls-1" d="m43.76,57.59h-.48l2.85-6.83c.07-.27.01-.56-.16-.78-.17-.22-.43-.35-.71-.35h-7.87c-1.32,0-2.39,1.07-2.39,2.39v10.9c0,.5.4.9.9.9s.9-.4.9-.9v-10.9c0-.33.27-.59.59-.59h6.7l-2.67,6.16h-2.45c-.5,0-.9.4-.9.9s.4.9.9.9h4.8c.33,0,.59.27.59.59v2.94c0,.5.4.9.9.9s.9-.4.9-.9v-2.94c0-1.32-1.07-2.39-2.39-2.39Z"/>
    <path class="cls-1" d="m90.11,49.63h-7.87c-1.32,0-2.39,1.07-2.39,2.39v10.9c0,.5.4.9.9.9s.9-.4.9-.9v-10.9c0-.33.27-.59.59-.59h6.97v6.16h-5.39c-.5,0-.9.4-.9.9s.4.9.9.9h5.39v3.54c0,.5.4.9.9.9s.9-.4.9-.9v-12.39c0-.5-.4-.9-.9-.9Z"/>
    <path class="cls-1" d="m103.57,57.59h-.48l2.85-6.83c.07-.27.01-.56-.16-.78-.17-.22-.43-.35-.71-.35h-7.87c-1.32,0-2.39,1.07-2.39,2.39v10.9c0,.5.4.9.9.9s.9-.4.9-.9v-10.9c0-.33.27-.59.59-.59h6.7l-2.67,6.16h-2.45c-.5,0-.9.4-.9.9s.4.9.9.9h4.8c.33,0,.59.27.59.59v2.94c0,.5.4.9.9.9s.9-.4.9-.9v-2.94c0-1.32-1.07-2.39-2.39-2.39Z"/>
  </g>
</svg>