<?xml version="1.0" encoding="utf-8"?>
<!-- Generator: Adobe Illustrator 27.9.0, SVG Export Plug-In . SVG Version: 6.00 Build 0)  -->
<svg version="1.1" id="Layer_1" xmlns="http://www.w3.org/2000/svg" xmlns:xlink="http://www.w3.org/1999/xlink" x="0px" y="0px"
	 viewBox="0 0 115.8 63.1" style="enable-background:new 0 0 115.8 63.1;" xml:space="preserve">
<style type="text/css">
	.st0{fill:#005E95;}
</style>
<path class="st0" d="M75.6,16.7c-0.1-0.7-0.4-1.3-0.9-1.8l-1.5-1.2l0,0l-16-13.4c-0.5-0.4-1.1-0.3-1.5,0.1s-0.3,1.1,0.1,1.5l8.1,6.8
	L59,14.5l-2.5-2.1C56,12,55.3,12.1,55,12.5s-0.3,1.1,0.1,1.5l2.5,2.1l-1.7,2l0,0l0,0l-5.6,6.7l-7.7-6.5c-0.1-0.1-0.2-0.3-0.2-0.3
	c0-0.1,0-0.2,0.1-0.4l6.6-7.9c0.2-0.2,0.5-0.2,0.7-0.1l1.9,1.6c0.4,0.4,1.1,0.3,1.5-0.1c0.4-0.4,0.3-1.1-0.1-1.5L51.3,8
	c-1.1-0.9-2.8-0.8-3.7,0.3L41,16.2c-0.5,0.5-0.7,1.2-0.6,1.9c0.1,0.7,0.4,1.3,0.9,1.8l1.7,1.4l0,0l6.9,5.8l0,0l2.7,2.3l0,0l6.2,5.2
	c0.2,0.2,0.4,0.3,0.7,0.3s0.6-0.1,0.8-0.4c0.4-0.5,0.3-1.1-0.1-1.5L52,26.2l4.9-5.8l2.7,2.2l5.1,4.2c0.5,0.4,1.1,0.6,1.7,0.6
	c0.1,0,0.2,0,0.2,0c0.7-0.1,1.3-0.4,1.8-0.9l2.2-2.6l0,0l4.4-5.3C75.4,18.1,75.6,17.4,75.6,16.7L75.6,16.7z M73.3,17.3l-4.4,5.3l0,0
	l-2.2,2.6c-0.1,0.1-0.3,0.2-0.3,0.2c-0.1,0-0.2,0-0.4-0.1L60.9,21l-2.7-2.2l7.3-8.7l7.7,6.5c0.1,0.1,0.2,0.3,0.2,0.3
	C73.5,17,73.5,17.1,73.3,17.3L73.3,17.3z"/>
<g>
	<path class="st0" d="M10.3,49H2.4C1.1,49,0,50,0,51.3v10.9c0,0.5,0.4,0.9,0.9,0.9s0.9-0.4,0.9-0.9v-3.5h5.4c0.5,0,0.9-0.4,0.9-0.9
		s-0.4-0.9-0.9-0.9H1.8v-5.6c0-0.3,0.3-0.6,0.6-0.6h7v1.1c0,0.5,0.5,1,1.1,0.9c0.4-0.1,0.8-0.5,0.8-0.9v-2
		C11.2,49.4,10.8,49,10.3,49L10.3,49z"/>
	<path class="st0" d="M114.9,49H107c-1.3,0-2.4,1.1-2.4,2.4v1.8c0,0.5,0.4,0.9,0.9,0.9s0.9-0.4,0.9-0.9v-1.8c0-0.3,0.3-0.6,0.6-0.6
		h2.3v11.5c0,0.5,0.4,0.9,0.9,0.9s0.9-0.4,0.9-0.9V50.8h3.8c0.5,0,0.9-0.4,0.9-0.9S115.4,49,114.9,49z"/>
	<path class="st0" d="M70.1,49h-7.9c-1.3,0-2.4,1.1-2.4,2.4v10.9c0,0.5,0.4,0.9,0.9,0.9s0.9-0.4,0.9-0.9v-11c0-0.3,0.3-0.6,0.6-0.6
		h7v5.6c0,0.3-0.3,0.6-0.6,0.6h-4.8c-0.5,0-0.9,0.4-0.9,0.9s0.4,0.9,0.9,0.9h4.8c1.3,0,2.4-1.1,2.4-2.4v-6.5
		C71,49.4,70.6,49,70.1,49z"/>
	<path class="st0" d="M25.2,49h-7.9C16,49,15,50,15,51.3v10.9c0,0.5,0.4,0.9,0.9,0.9s0.9-0.4,0.9-0.9V51.3c0-0.3,0.3-0.6,0.6-0.6h7
		v6.2H19c-0.5,0-0.9,0.4-0.9,0.9s0.4,0.9,0.9,0.9h5.4v3.5c0,0.5,0.4,0.9,0.9,0.9s0.9-0.4,0.9-0.9V49.9C26.1,49.4,25.7,49,25.2,49
		L25.2,49z"/>
	<path class="st0" d="M55.1,49h-7.9c-1.3,0-2.4,1.1-2.4,2.4v10.9c0,0.5,0.4,0.9,0.9,0.9s0.9-0.4,0.9-0.9v-11c0-0.3,0.3-0.6,0.6-0.6
		h7v6.2h-5.4c-0.5,0-0.9,0.4-0.9,0.9s0.4,0.9,0.9,0.9h5.4v3.5c0,0.5,0.4,0.9,0.9,0.9s0.9-0.4,0.9-0.9V49.9C56,49.4,55.6,49,55.1,49
		L55.1,49z"/>
	<path class="st0" d="M38.7,56.9h-0.5l2.8-6.8c0.1-0.3,0-0.6-0.2-0.8S40.4,49,40.1,49h-7.9c-1.3,0-2.4,1.1-2.4,2.4v10.9
		c0,0.5,0.4,0.9,0.9,0.9s0.9-0.4,0.9-0.9v-11c0-0.3,0.3-0.6,0.6-0.6H39l-2.7,6.2h-2.4c-0.5,0-0.9,0.4-0.9,0.9s0.4,0.9,0.9,0.9h4.8
		c0.3,0,0.6,0.3,0.6,0.6v2.9c0,0.5,0.4,0.9,0.9,0.9s0.9-0.4,0.9-0.9v-2.9C41.1,58,40,56.9,38.7,56.9L38.7,56.9z"/>
	<path class="st0" d="M85,49h-7.9c-1.3,0-2.4,1.1-2.4,2.4v10.9c0,0.5,0.4,0.9,0.9,0.9s0.9-0.4,0.9-0.9v-11c0-0.3,0.3-0.6,0.6-0.6h7
		v6.2h-5.4c-0.5,0-0.9,0.4-0.9,0.9s0.4,0.9,0.9,0.9h5.4v3.5c0,0.5,0.4,0.9,0.9,0.9s0.9-0.4,0.9-0.9V49.9C85.9,49.4,85.5,49,85,49
		L85,49z"/>
	<path class="st0" d="M98.5,56.9H98l2.8-6.8c0.1-0.3,0-0.6-0.2-0.8s-0.4-0.3-0.7-0.3H92c-1.3,0-2.4,1.1-2.4,2.4v10.9
		c0,0.5,0.4,0.9,0.9,0.9s0.9-0.4,0.9-0.9v-11c0-0.3,0.3-0.6,0.6-0.6h6.7L96,56.9h-2.4c-0.5,0-0.9,0.4-0.9,0.9s0.4,0.9,0.9,0.9h4.8
		c0.3,0,0.6,0.3,0.6,0.6v2.9c0,0.5,0.4,0.9,0.9,0.9s0.9-0.4,0.9-0.9v-2.9C100.9,58,99.8,56.9,98.5,56.9L98.5,56.9z"/>
</g>
</svg>
