<?xml version="1.0" encoding="utf-8"?>
<!-- Generator: Adobe Illustrator 27.9.0, SVG Export Plug-In . SVG Version: 6.00 Build 0)  -->
<svg version="1.1" id="Layer_1" xmlns="http://www.w3.org/2000/svg" xmlns:xlink="http://www.w3.org/1999/xlink" x="0px" y="0px"
	 viewBox="0 0 152 44" style="enable-background:new 0 0 152 44;" xml:space="preserve">
<style type="text/css">
	.st0{fill:#282829;}
	.st1{fill:none;stroke:#000000;stroke-width:13;stroke-linecap:round;stroke-linejoin:round;stroke-miterlimit:10;}
	.st2{fill:none;stroke:#000000;stroke-width:13;stroke-miterlimit:10;}
	.st3{fill:#FFFFFF;}
	.st4{fill:#0B519B;}
	.st5{fill:#E0E0E0;}
	.st6{fill:none;stroke:#282829;stroke-width:2;stroke-miterlimit:10;}
	.st7{fill:none;stroke:#282829;stroke-width:0.25;stroke-miterlimit:10;}
	.st8{fill:none;stroke:#282829;stroke-width:8;stroke-linecap:round;stroke-linejoin:round;stroke-miterlimit:10;}
	.st9{fill:#4A4B4C;}
</style>
<path class="st4" d="M87.99,11.65c-0.04-0.48-0.27-0.91-0.64-1.22l-1-0.84c0,0,0,0,0,0L75.49,0.48c-0.31-0.26-0.77-0.22-1.03,0.09
	c-0.26,0.31-0.22,0.77,0.09,1.03l5.49,4.61l-3.33,3.97l-1.71-1.43c-0.31-0.26-0.77-0.22-1.03,0.09c-0.26,0.31-0.22,0.77,0.09,1.03
	l1.71,1.43l-1.15,1.37c0,0,0,0,0,0s0,0,0,0l-3.8,4.52l-5.25-4.41c-0.09-0.08-0.12-0.18-0.12-0.23c0-0.05,0-0.16,0.08-0.25l4.51-5.37
	c0.12-0.14,0.34-0.16,0.48-0.04l1.32,1.1c0.31,0.26,0.77,0.22,1.03-0.09c0.26-0.31,0.22-0.77-0.09-1.03l-1.32-1.1
	c-0.76-0.64-1.9-0.54-2.53,0.22l-4.51,5.37c-0.31,0.37-0.46,0.84-0.41,1.32c0.04,0.48,0.27,0.91,0.64,1.22l1.13,0.95c0,0,0,0,0,0
	l4.68,3.92c0,0,0,0,0,0l1.85,1.55c0,0,0,0,0,0l4.2,3.53c0.14,0.11,0.3,0.17,0.47,0.17c0.21,0,0.41-0.09,0.56-0.26
	c0.26-0.31,0.22-0.77-0.09-1.03l-5.49-4.61l3.33-3.97l1.82,1.52l3.43,2.88c0.33,0.27,0.73,0.42,1.15,0.42c0.05,0,0.11,0,0.16-0.01
	c0.48-0.04,0.91-0.27,1.22-0.64l1.5-1.78c0,0,0,0,0-0.01l3.01-3.58C87.88,12.6,88.03,12.13,87.99,11.65z M86.46,12.03l-3.01,3.59
	c0,0,0,0.01-0.01,0.01l-1.49,1.78c-0.08,0.1-0.18,0.12-0.23,0.12c-0.05,0-0.16,0-0.25-0.08l-3.44-2.88l-1.82-1.52l4.95-5.9
	l5.25,4.41c0.1,0.08,0.12,0.18,0.12,0.23C86.54,11.83,86.54,11.93,86.46,12.03z"/>
<g>
	<path class="st4" d="M43.63,33.55h-5.34c-0.9,0-1.63,0.73-1.63,1.63v7.4c0,0.34,0.27,0.61,0.61,0.61c0.34,0,0.61-0.27,0.61-0.61
		v-2.4h3.66c0.34,0,0.61-0.27,0.61-0.61s-0.27-0.61-0.61-0.61h-3.66v-3.78c0-0.22,0.18-0.4,0.4-0.4h4.73v0.76
		c0,0.38,0.33,0.67,0.72,0.61c0.3-0.05,0.51-0.34,0.51-0.64v-1.33C44.24,33.83,43.97,33.55,43.63,33.55z"/>
	<path class="st4" d="M114.73,33.55h-5.34c-0.9,0-1.63,0.73-1.63,1.63v1.19c0,0.34,0.27,0.61,0.61,0.61c0.34,0,0.61-0.27,0.61-0.61
		v-1.19c0-0.22,0.18-0.4,0.4-0.4h1.55v7.81c0,0.34,0.27,0.61,0.61,0.61c0.34,0,0.61-0.27,0.61-0.61v-7.81h2.57
		c0.34,0,0.61-0.27,0.61-0.61C115.34,33.83,115.06,33.55,114.73,33.55z"/>
	<path class="st4" d="M84.26,33.55h-5.34c-0.9,0-1.63,0.73-1.63,1.63v7.4c0,0.34,0.27,0.61,0.61,0.61c0.34,0,0.61-0.27,0.61-0.61
		v-7.4c0-0.22,0.18-0.4,0.4-0.4h4.73v3.78c0,0.22-0.18,0.4-0.4,0.4h-3.26c-0.34,0-0.61,0.27-0.61,0.61c0,0.34,0.27,0.61,0.61,0.61
		h3.26c0.9,0,1.63-0.73,1.63-1.63v-4.39C84.87,33.83,84.59,33.55,84.26,33.55z"/>
	<path class="st4" d="M53.79,33.55h-5.34c-0.9,0-1.63,0.73-1.63,1.63v7.4c0,0.34,0.27,0.61,0.61,0.61c0.34,0,0.61-0.27,0.61-0.61
		v-7.4c0-0.22,0.18-0.4,0.4-0.4h4.73v4.18h-3.66c-0.34,0-0.61,0.27-0.61,0.61c0,0.34,0.27,0.61,0.61,0.61h3.66v2.4
		c0,0.34,0.27,0.61,0.61,0.61c0.34,0,0.61-0.27,0.61-0.61v-8.42C54.4,33.83,54.13,33.55,53.79,33.55z"/>
	<path class="st4" d="M74.1,33.55h-5.34c-0.9,0-1.63,0.73-1.63,1.63v7.4c0,0.34,0.27,0.61,0.61,0.61c0.34,0,0.61-0.27,0.61-0.61
		v-7.4c0-0.22,0.18-0.4,0.4-0.4h4.73v4.18h-3.66c-0.34,0-0.61,0.27-0.61,0.61c0,0.34,0.27,0.61,0.61,0.61h3.66v2.4
		c0,0.34,0.27,0.61,0.61,0.61c0.34,0,0.61-0.27,0.61-0.61v-8.42C74.71,33.83,74.44,33.55,74.1,33.55z"/>
	<path class="st4" d="M62.93,38.96H62.6l1.93-4.64c0.05-0.18,0.01-0.38-0.11-0.53c-0.12-0.15-0.29-0.24-0.48-0.24H58.6
		c-0.9,0-1.63,0.73-1.63,1.63v7.4c0,0.34,0.27,0.61,0.61,0.61c0.34,0,0.61-0.27,0.61-0.61v-7.4c0-0.22,0.18-0.4,0.4-0.4h4.55
		l-1.81,4.18h-1.66c-0.34,0-0.61,0.27-0.61,0.61c0,0.34,0.27,0.61,0.61,0.61h3.26c0.22,0,0.4,0.18,0.4,0.4v2
		c0,0.34,0.27,0.61,0.61,0.61c0.34,0,0.61-0.27,0.61-0.61v-2C64.56,39.69,63.83,38.96,62.93,38.96z"/>
	<path class="st4" d="M94.41,33.55h-5.34c-0.9,0-1.63,0.73-1.63,1.63v7.4c0,0.34,0.27,0.61,0.61,0.61c0.34,0,0.61-0.27,0.61-0.61
		v-7.4c0-0.22,0.18-0.4,0.4-0.4h4.73v4.18h-3.66c-0.34,0-0.61,0.27-0.61,0.61c0,0.34,0.27,0.61,0.61,0.61h3.66v2.4
		c0,0.34,0.27,0.61,0.61,0.61c0.34,0,0.61-0.27,0.61-0.61v-8.42C95.02,33.83,94.75,33.55,94.41,33.55z"/>
	<path class="st4" d="M103.55,38.96h-0.33l1.93-4.64c0.05-0.18,0.01-0.38-0.11-0.53c-0.12-0.15-0.29-0.24-0.48-0.24h-5.34
		c-0.9,0-1.63,0.73-1.63,1.63v7.4c0,0.34,0.27,0.61,0.61,0.61c0.34,0,0.61-0.27,0.61-0.61v-7.4c0-0.22,0.18-0.4,0.4-0.4h4.55
		l-1.81,4.18h-1.66c-0.34,0-0.61,0.27-0.61,0.61c0,0.34,0.27,0.61,0.61,0.61h3.26c0.22,0,0.4,0.18,0.4,0.4v2
		c0,0.34,0.27,0.61,0.61,0.61c0.34,0,0.61-0.27,0.61-0.61v-2C105.18,39.69,104.45,38.96,103.55,38.96z"/>
</g>
</svg>
