<?xml version="1.0" encoding="utf-8"?>
<!-- Generator: Adobe Illustrator 27.9.0, SVG Export Plug-In . SVG Version: 6.00 Build 0)  -->
<svg version="1.1" id="Layer_1" xmlns="http://www.w3.org/2000/svg" xmlns:xlink="http://www.w3.org/1999/xlink" x="0px" y="0px"
	 viewBox="0 0 98.01 71.89" style="enable-background:new 0 0 98.01 71.89;" xml:space="preserve">
<style type="text/css">
	.st0{fill:#005E95;}
	.st1{fill:#282829;}
	.st2{fill:none;stroke:#000000;stroke-width:13;stroke-linecap:round;stroke-linejoin:round;stroke-miterlimit:10;}
	.st3{fill:none;stroke:#000000;stroke-width:13;stroke-miterlimit:10;}
	.st4{fill:#FFFFFF;}
	.st5{fill:#0B519B;}
	.st6{fill:#E0E0E0;}
	.st7{fill:none;stroke:#282829;stroke-width:2;stroke-miterlimit:10;}
	.st8{fill:none;stroke:#282829;stroke-width:0.25;stroke-miterlimit:10;}
	.st9{fill:none;stroke:#282829;stroke-width:8;stroke-linecap:round;stroke-linejoin:round;stroke-miterlimit:10;}
	.st10{fill:#4A4B4C;}
</style>
<rect class="st0" width="98.01" height="71.89"/>
<path class="st4" d="M61.12,37.75c-0.04-0.48-0.27-0.92-0.64-1.23l-1.01-0.84c0,0,0,0,0,0l-10.97-9.21
	c-0.31-0.26-0.77-0.22-1.04,0.09c-0.26,0.31-0.22,0.77,0.09,1.04l5.55,4.66l-3.37,4.01l-1.72-1.45c-0.31-0.26-0.77-0.22-1.04,0.09
	c-0.26,0.31-0.22,0.77,0.09,1.04l1.72,1.45l-1.16,1.39c0,0,0,0,0,0c0,0,0,0,0,0l-3.84,4.57l-5.31-4.45
	c-0.1-0.08-0.12-0.18-0.12-0.23c0-0.05,0-0.16,0.08-0.25l4.56-5.43c0.12-0.15,0.34-0.17,0.49-0.04l1.33,1.12
	c0.31,0.26,0.77,0.22,1.04-0.09c0.26-0.31,0.22-0.77-0.09-1.04l-1.33-1.12c-0.77-0.64-1.92-0.54-2.56,0.23l-4.56,5.43
	c-0.31,0.37-0.46,0.84-0.42,1.33c0.04,0.48,0.27,0.92,0.64,1.23l1.14,0.96c0,0,0,0,0,0.01l4.72,3.96c0,0,0,0,0,0l1.87,1.57
	c0,0,0,0,0,0l4.25,3.56c0.14,0.12,0.31,0.17,0.47,0.17c0.21,0,0.42-0.09,0.56-0.26c0.26-0.31,0.22-0.77-0.09-1.04l-5.55-4.66
	l3.37-4.01l1.84,1.54l3.47,2.91c0.33,0.28,0.74,0.43,1.17,0.43c0.05,0,0.11,0,0.16-0.01c0.48-0.04,0.92-0.27,1.23-0.64l1.51-1.8
	c0,0,0,0,0-0.01l3.04-3.62C61.01,38.71,61.16,38.24,61.12,37.75z M59.57,38.14l-3.04,3.63c0,0,0,0.01-0.01,0.01l-1.51,1.79
	c-0.08,0.1-0.18,0.12-0.24,0.12c-0.05,0-0.16,0-0.25-0.08l-3.47-2.91l-1.84-1.54l5-5.96l5.31,4.45c0.1,0.08,0.12,0.18,0.12,0.24
	C59.66,37.94,59.65,38.04,59.57,38.14z"/>
</svg>
