<?xml version="1.0" encoding="utf-8"?>
<!-- Generator: Adobe Illustrator 27.9.0, SVG Export Plug-In . SVG Version: 6.00 Build 0)  -->
<svg version="1.1" id="Layer_1" xmlns="http://www.w3.org/2000/svg" xmlns:xlink="http://www.w3.org/1999/xlink" x="0px" y="0px"
	 viewBox="0 0 152 45" style="enable-background:new 0 0 152 45;" xml:space="preserve">
<style type="text/css">
	.st0{fill:#282829;}
	.st1{fill:none;stroke:#000000;stroke-width:13;stroke-linecap:round;stroke-linejoin:round;stroke-miterlimit:10;}
	.st2{fill:none;stroke:#000000;stroke-width:13;stroke-miterlimit:10;}
	.st3{fill:#FFFFFF;}
	.st4{fill:#0B519B;}
	.st5{fill:#E0E0E0;}
	.st6{fill:none;stroke:#282829;stroke-width:2;stroke-miterlimit:10;}
	.st7{fill:none;stroke:#282829;stroke-width:0.25;stroke-miterlimit:10;}
	.st8{fill:none;stroke:#282829;stroke-width:8;stroke-linecap:round;stroke-linejoin:round;stroke-miterlimit:10;}
	.st9{fill:#005E95;}
	.st10{fill:#4A4B4C;}
</style>
<path class="st9" d="M88.56,11.88c-0.04-0.5-0.28-0.96-0.67-1.28l-1.04-0.88c0,0,0,0,0,0L75.47,0.18c-0.32-0.27-0.8-0.23-1.07,0.09
	s-0.23,0.8,0.09,1.07l5.75,4.83l-3.49,4.16l-1.79-1.5c-0.32-0.27-0.8-0.23-1.07,0.09c-0.27,0.32-0.23,0.8,0.09,1.07l1.79,1.5
	l-1.21,1.44c0,0,0,0,0,0c0,0,0,0,0,0l-3.98,4.74l-5.5-4.62c-0.1-0.08-0.12-0.19-0.13-0.24c0-0.06,0-0.16,0.08-0.26l4.72-5.63
	c0.13-0.15,0.35-0.17,0.51-0.04l1.38,1.16c0.32,0.27,0.8,0.23,1.07-0.09c0.27-0.32,0.23-0.8-0.09-1.07l-1.38-1.16
	c-0.8-0.67-1.99-0.56-2.65,0.23l-4.72,5.63c-0.32,0.39-0.48,0.88-0.43,1.38c0.04,0.5,0.28,0.96,0.67,1.28l1.18,0.99
	c0,0,0,0,0.01,0.01l4.9,4.11c0,0,0,0,0,0l1.93,1.62c0,0,0,0,0,0l4.4,3.69c0.14,0.12,0.32,0.18,0.49,0.18c0.22,0,0.43-0.09,0.58-0.27
	c0.27-0.32,0.23-0.8-0.09-1.07l-5.75-4.83l3.49-4.16l1.9,1.6l3.6,3.02c0.34,0.29,0.77,0.44,1.21,0.44c0.06,0,0.11,0,0.17-0.01
	c0.5-0.04,0.96-0.28,1.28-0.67l1.57-1.87c0,0,0,0,0-0.01l3.15-3.75C88.44,12.87,88.6,12.38,88.56,11.88z M86.95,12.28l-3.15,3.76
	c0,0,0,0.01-0.01,0.01l-1.56,1.86c-0.08,0.1-0.19,0.12-0.24,0.13c-0.06,0-0.16,0-0.26-0.08l-3.6-3.02l-1.9-1.6l5.19-6.18l5.5,4.61
	c0.1,0.08,0.12,0.19,0.13,0.24C87.04,12.07,87.04,12.18,86.95,12.28z"/>
<g>
	<path class="st9" d="M42.1,34.82h-5.59c-0.94,0-1.7,0.76-1.7,1.7v7.75c0,0.35,0.29,0.64,0.64,0.64c0.35,0,0.64-0.29,0.64-0.64
		v-2.51h3.83c0.35,0,0.64-0.29,0.64-0.64c0-0.35-0.29-0.64-0.64-0.64h-3.83v-3.96c0-0.23,0.19-0.42,0.42-0.42h4.95v0.79
		c0,0.39,0.35,0.7,0.75,0.63c0.32-0.05,0.53-0.35,0.53-0.67v-1.4C42.75,35.1,42.46,34.82,42.1,34.82z"/>
	<path class="st9" d="M116.55,34.82h-5.59c-0.94,0-1.7,0.76-1.7,1.7v1.24c0,0.35,0.29,0.64,0.64,0.64c0.35,0,0.64-0.29,0.64-0.64
		v-1.24c0-0.23,0.19-0.42,0.42-0.42h1.63v8.17c0,0.35,0.29,0.64,0.64,0.64c0.35,0,0.64-0.29,0.64-0.64V36.1h2.69
		c0.35,0,0.64-0.29,0.64-0.64C117.19,35.1,116.9,34.82,116.55,34.82z"/>
	<path class="st9" d="M84.65,34.82h-5.59c-0.94,0-1.7,0.76-1.7,1.7v7.75c0,0.35,0.29,0.64,0.64,0.64c0.35,0,0.64-0.29,0.64-0.64
		v-7.75c0-0.23,0.19-0.42,0.42-0.42h4.95v3.96c0,0.23-0.19,0.42-0.42,0.42h-3.41c-0.35,0-0.64,0.29-0.64,0.64
		c0,0.35,0.29,0.64,0.64,0.64h3.41c0.94,0,1.7-0.76,1.7-1.7v-4.6C85.29,35.1,85,34.82,84.65,34.82z"/>
	<path class="st9" d="M52.74,34.82h-5.59c-0.94,0-1.7,0.76-1.7,1.7v7.75c0,0.35,0.29,0.64,0.64,0.64c0.35,0,0.64-0.29,0.64-0.64
		v-7.75c0-0.23,0.19-0.42,0.42-0.42h4.95v4.38h-3.83c-0.35,0-0.64,0.29-0.64,0.64c0,0.35,0.29,0.64,0.64,0.64h3.83v2.51
		c0,0.35,0.29,0.64,0.64,0.64c0.35,0,0.64-0.29,0.64-0.64v-8.81C53.38,35.1,53.09,34.82,52.74,34.82z"/>
	<path class="st9" d="M74.01,34.82h-5.59c-0.94,0-1.7,0.76-1.7,1.7v7.75c0,0.35,0.29,0.64,0.64,0.64c0.35,0,0.64-0.29,0.64-0.64
		v-7.75c0-0.23,0.19-0.42,0.42-0.42h4.95v4.38h-3.83c-0.35,0-0.64,0.29-0.64,0.64c0,0.35,0.29,0.64,0.64,0.64h3.83v2.51
		c0,0.35,0.29,0.64,0.64,0.64c0.35,0,0.64-0.29,0.64-0.64v-8.81C74.65,35.1,74.36,34.82,74.01,34.82z"/>
	<path class="st9" d="M62.31,40.47h-0.34L64,35.62c0.05-0.19,0.01-0.4-0.11-0.55c-0.12-0.16-0.31-0.25-0.51-0.25h-5.59
		c-0.94,0-1.7,0.76-1.7,1.7v7.75c0,0.35,0.29,0.64,0.64,0.64c0.35,0,0.64-0.29,0.64-0.64v-7.75c0-0.23,0.19-0.42,0.42-0.42h4.76
		l-1.9,4.38H58.9c-0.35,0-0.64,0.29-0.64,0.64c0,0.35,0.29,0.64,0.64,0.64h3.41c0.23,0,0.42,0.19,0.42,0.42v2.09
		c0,0.35,0.29,0.64,0.64,0.64c0.35,0,0.64-0.29,0.64-0.64v-2.09C64.02,41.24,63.25,40.47,62.31,40.47z"/>
	<path class="st9" d="M95.28,34.82h-5.59c-0.94,0-1.7,0.76-1.7,1.7v7.75c0,0.35,0.29,0.64,0.64,0.64s0.64-0.29,0.64-0.64v-7.75
		c0-0.23,0.19-0.42,0.42-0.42h4.95v4.38h-3.83c-0.35,0-0.64,0.29-0.64,0.64c0,0.35,0.29,0.64,0.64,0.64h3.83v2.51
		c0,0.35,0.29,0.64,0.64,0.64c0.35,0,0.64-0.29,0.64-0.64v-8.81C95.92,35.1,95.63,34.82,95.28,34.82z"/>
	<path class="st9" d="M104.85,40.47h-0.34l2.02-4.86c0.05-0.19,0.01-0.4-0.11-0.55c-0.12-0.16-0.31-0.25-0.51-0.25h-5.59
		c-0.94,0-1.7,0.76-1.7,1.7v7.75c0,0.35,0.29,0.64,0.64,0.64c0.35,0,0.64-0.29,0.64-0.64v-7.75c0-0.23,0.19-0.42,0.42-0.42h4.76
		l-1.9,4.38h-1.74c-0.35,0-0.64,0.29-0.64,0.64c0,0.35,0.29,0.64,0.64,0.64h3.41c0.23,0,0.42,0.19,0.42,0.42v2.09
		c0,0.35,0.29,0.64,0.64,0.64c0.35,0,0.64-0.29,0.64-0.64v-2.09C106.56,41.24,105.79,40.47,104.85,40.47z"/>
</g>
</svg>
